<svg xmlns="http://www.w3.org/2000/svg" width="1200" height="630" viewBox="0 0 1200 630">
  <defs>
    <linearGradient id="bg" x1="0" y1="0" x2="1" y2="1">
      <stop offset="0%" stop-color="#0F172A"/>
      <stop offset="100%" stop-color="#020617"/>
    </linearGradient>
    <linearGradient id="mark" x1="0" y1="0" x2="1" y2="1">
      <stop offset="0%" stop-color="#22C55E"/>
      <stop offset="100%" stop-color="#16A34A"/>
    </linearGradient>
  </defs>
  <rect width="1200" height="630" fill="url(#bg)"/>
  <circle cx="1080" cy="80" r="260" fill="#16A34A" opacity="0.12"/>
  <circle cx="60" cy="600" r="220" fill="#22C55E" opacity="0.08"/>
  <rect x="100" y="120" width="88" height="88" rx="24" fill="url(#mark)"/>
  <path d="M126 148h36a12 12 0 0 1 12 12v20a12 12 0 0 1-12 12h-22l-12 10v-10h-2a12 12 0 0 1-12-12v-20a12 12 0 0 1 12-12z" fill="none" stroke="#eafff1" stroke-width="4" stroke-linejoin="round"/>
  <text x="100" y="270" font-family="Inter, Arial, sans-serif" font-size="44" font-weight="800" fill="#F8FAFC">Wazapp</text>
  <text x="100" y="340" font-family="Inter, Arial, sans-serif" font-size="52" font-weight="800" fill="#F8FAFC">Kirim Pesan WhatsApp</text>
  <text x="100" y="400" font-family="Inter, Arial, sans-serif" font-size="52" font-weight="800" fill="#F8FAFC">Otomatis untuk Bisnis Anda</text>
  <text x="100" y="452" font-family="Inter, Arial, sans-serif" font-size="24" fill="#94A3B8">WhatsApp Gateway API &#8226; Multi Device &#8226; Blast Message</text>
</svg>
